<svg xmlns="http://www.w3.org/2000/svg" viewBox="0 0 180 180" fill="none" shape-rendering="auto" width="128" height="128"><metadata xmlns:rdf="http://www.w3.org/1999/02/22-rdf-syntax-ns#" xmlns:xsi="http://www.w3.org/2001/XMLSchema-instance" xmlns:dc="http://purl.org/dc/elements/1.1/" xmlns:dcterms="http://purl.org/dc/terms/"><rdf:RDF><rdf:Description><dc:title>Bottts</dc:title><dc:creator>Pablo Stanley</dc:creator><dc:source xsi:type="dcterms:URI">https://bottts.com/</dc:source><dcterms:license xsi:type="dcterms:URI">https://bottts.com/</dcterms:license><dc:rights>Remix of „Bottts” (https://bottts.com/) by „Pablo Stanley”, licensed under „Free for personal and commercial use” (https://bottts.com/)</dc:rights></rdf:Description></rdf:RDF></metadata><mask id="viewboxMask"><rect width="180" height="180" rx="90" ry="90" x="0" y="0" fill="#fff" /></mask><g mask="url(#viewboxMask)"><rect fill="#3d2036" width="180" height="180" x="0" y="0" /><g transform="translate(0 66)"><mask id="sidesSquare-a" style="mask-type:luminance" maskUnits="userSpaceOnUse" x="14" y="16" width="152" height="44"><g fill="#fff"><rect x="14" y="16" width="36" height="44" rx="9"/><rect x="130" y="16" width="36" height="44" rx="9"/></g></mask><g mask="url(#sidesSquare-a)"><path d="M0 0h180v76H0V0Z" fill="#c0ca33"/><path d="M0 0h180v76H0V0Z" fill="#fff" fill-opacity=".3"/><path fill="#000" fill-opacity=".1" d="M0 38h180v38H0z"/></g></g><g transform="translate(41)"><mask id="topAntennaCrooked-a" style="mask-type:luminance" maskUnits="userSpaceOnUse" x="38" y="12" width="24" height="40"><g fill="#fff"><path d="M55.54 34.39 51 45h-3.74l4.92-10.44-6.05-10.43 3.22-11.84 2.9.8-2.9 10.62 6.2 10.68Z"/><path d="M38 39h24v13H38z"/></g></mask><g mask="url(#topAntennaCrooked-a)"><path d="M0 0h100v52H0V0Z" fill="#c0ca33"/><path d="M0 6h100v52H0V6Z" fill="#fff" fill-opacity=".3"/><path fill="#fff" fill-opacity=".2" d="M38 39h24v13H38z"/></g><circle cx="50" cy="8" r="8" fill="#FFE65C"/><circle cx="53" cy="5" r="3" fill="#fff"/></g><g transform="translate(25 44)"><mask id="faceSquare02-a" style="mask-type:luminance" maskUnits="userSpaceOnUse" x="0" y="0" width="130" height="120"><path d="M0 12A12 12 0 0 1 12 0h106a12 12 0 0 1 12 12v70a38 38 0 0 1-38 38H38A38 38 0 0 1 0 82V12Z" fill="#fff"/></mask><g mask="url(#faceSquare02-a)"><path d="M-2-2h134v124H-2V-2Z" fill="#c0ca33"/><g transform="translate(-1 -1)"></g></g></g><g transform="translate(52 124)"><rect x="24" y="6" width="27" height="8" rx="4" fill="#000" fill-opacity=".8"/></g><g transform="translate(38 76)"><path d="M28 44a20 20 0 0 0 19.9-18h41.52a5 5 0 1 0 0-4H47.9A20 20 0 1 0 28 44Z" fill="#000" fill-opacity=".2"/><circle cx="94" cy="24" r="2" fill="#fff"/><circle cx="28" cy="24" r="16" fill="#000" fill-opacity=".6"/><circle cx="34" cy="16" r="3" fill="#fff"/></g></g></svg>